<svg version="1.1" xmlns="http://www.w3.org/2000/svg" xmlns:xlink="http://www.w3.org/1999/xlink" width="396.27313" height="132.60316" viewBox="0,0,396.27313,132.60316"><g transform="translate(-41.86344,-111.05998)"><g data-paper-data="{&quot;isPaintingLayer&quot;:true}" fill-rule="nonzero" stroke="none" stroke-width="1" stroke-linecap="butt" stroke-linejoin="miter" stroke-miterlimit="10" stroke-dasharray="" stroke-dashoffset="0" style="mix-blend-mode: normal"><path d="M100.71081,201.8673v-76.67187h19.40625c6.69792,0 11.90625,0.83854 15.625,2.51563c3.71875,1.66666 6.33334,4.28646 7.84375,7.85938c1.52084,3.5625 2.28125,8.18229 2.28125,13.85938v27.82813c0,5.73959 -0.76041,10.42709 -2.28125,14.0625c-1.51041,3.625 -4.10937,6.29166 -7.79687,8c-3.6875,1.69791 -8.84896,2.54688 -15.48437,2.54688zM117.66393,190.13292h2.64063c2.59375,0 4.45833,-0.38021 5.59375,-1.14062c1.13541,-0.76041 1.84375,-1.89584 2.125,-3.40625c0.28125,-1.51041 0.42188,-3.40104 0.42188,-5.67187v-33.42187c0,-2.27084 -0.17187,-4.09896 -0.51562,-5.48437c-0.34375,-1.39584 -1.08334,-2.40625 -2.21875,-3.03125c-1.13541,-0.63541 -2.96875,-0.95312 -5.5,-0.95312h-2.54687z" fill="#004cad"/><path d="M374.76675,201.8673v-76.67187h21.10938c5.17708,0 9.65625,0.56771 13.4375,1.70313c3.79167,1.13541 6.74479,3.17188 8.85938,6.10938c2.11458,2.9375 3.17188,7.08334 3.17188,12.4375c0,3.15625 -0.25521,5.96875 -0.76562,8.4375c-0.5,2.45834 -1.42708,4.58854 -2.78125,6.39063c-1.35417,1.79166 -3.29687,3.28646 -5.82812,4.48438l10.51563,37.10938l15.60938,32.29166c0,0 -6.69026,-1.94221 -13.26897,-5.72863c-5.48926,-3.15938 -9.53695,-6.66389 -11.87741,-10.41855c-1.07256,-1.72064 -3.33853,-5.41603 -4.4065,-7.92844c-1.48753,-3.49946 -2.99759,-7.28063 -4.20649,-11.58391c-4.1006,-14.5968 -7.78751,-30.9915 -7.78751,-30.9915h-4.82812v34.35938zM392.26156,157.75792h4.73438c2.39583,0 4.25521,-0.42709 5.57813,-1.28125c1.32292,-0.85416 2.25,-2.08334 2.78125,-3.6875c0.54167,-1.61459 0.8125,-3.55729 0.8125,-5.82812c0,-3.28125 -0.59896,-5.83334 -1.79687,-7.65625c-1.19792,-1.83334 -3.40625,-2.75 -6.625,-2.75h-5.48437z" fill="#004cad"/><path d="M224.8997,201.8673v-76.67187h25.75c4.60416,0 8.39063,0.86979 11.35938,2.60938c2.96875,1.72916 5.17708,4.25 6.625,7.5625c1.45833,3.3125 2.1875,7.33854 2.1875,12.07813c0,5.92709 -0.97917,10.45313 -2.9375,13.57813c-1.95833,3.125 -4.60937,5.28646 -7.95312,6.48438c-3.34375,1.19791 -7.09896,1.79688 -11.26563,1.79688h-6.8125v32.5625zM241.85283,157.47667h5.67188c2.08334,0 3.66146,-0.38021 4.73438,-1.14062c1.07291,-0.76041 1.78125,-1.89584 2.125,-3.40625c0.35417,-1.51041 0.53125,-3.4375 0.53125,-5.78125c0,-1.94791 -0.14583,-3.66146 -0.4375,-5.14062c-0.28125,-1.48959 -0.95834,-2.67709 -2.03125,-3.5625c-1.07291,-0.88541 -2.74479,-1.32812 -5.01562,-1.32812h-5.57812z" fill="#004cad"/><path d="M278.9484,125.19542h25.74997c4.60417,0 8.39063,0.86979 11.35938,2.60938c2.96875,1.72916 5.17708,4.25 6.625,7.5625c1.45833,3.3125 2.1875,7.33854 2.1875,12.07813c0,5.92709 -0.97917,10.45313 -2.9375,13.57813c-1.95833,3.125 -4.60937,5.28646 -7.95312,6.48438c-3.34375,1.19791 -7.09896,1.79688 -11.26562,1.79688h-6.8125v32.5625h-16.9531zM295.9015,157.47667h5.67188c2.08333,0 3.66146,-0.38021 4.73438,-1.14062c1.07292,-0.76041 1.78125,-1.89584 2.125,-3.40625c0.35417,-1.51041 0.53125,-3.4375 0.53125,-5.78125c0,-1.94791 -0.14583,-3.66146 -0.4375,-5.14062c-0.28125,-1.48959 -0.95833,-2.67709 -2.03125,-3.5625c-1.07292,-0.88541 -2.74479,-1.32812 -5.01562,-1.32812h-5.57812z" fill="#004cad"/><path d="M46.14723,202.0673l14.875,-41.26562c0,0 -5.09291,-22.1327 -15.20312,-42.80625c-1.82565,-3.73311 -3.95566,-6.71394 -3.95566,-6.71394c0,0 3.19432,-0.54394 5.04079,0.07291c0.21527,0.07191 0.83756,0.94693 1.01857,1.04831c1.86771,1.04599 1.23808,2.98524 3.77977,4.99784c5.35077,4.23694 5.53408,3.80138 11.51653,11.59488c2.70455,3.52329 8.02187,17.13438 8.02187,17.13438l6.8125,-20.73437h14.10938l-13.45312,39.84375l14.96875,36.82813h-15.90625l-9.375,-22.90625l-8.23437,22.90625z" fill="#004cad"/><path d="M332.99708,201.8673v-76.67187h34.46875v11.54688h-17.51562v19.03125h13.34375v11.73438h-13.34375v22.90625h17.70313v11.45313z" fill="#004cad"/><path d="M152.50013,201.8673v-10.21875l18.73438,-55h-17.89062v-11.45312h34.54688v9.5625l-19.01562,55.65625h19.20313v11.45313z" fill="#004cad"/><path d="M196.51754,201.8673v-76.67187h16.9375v76.67188z" fill="#004cad"/><path d="M105.71081,201.8673v-76.67187h19.40625c6.69792,0 11.90625,0.83854 15.625,2.51563c3.71875,1.66666 6.33334,4.28646 7.84375,7.85938c1.52084,3.5625 2.28125,8.18229 2.28125,13.85938v27.82813c0,5.73959 -0.76041,10.42709 -2.28125,14.0625c-1.51041,3.625 -4.10937,6.29166 -7.79687,8c-3.6875,1.69791 -8.84896,2.54688 -15.48437,2.54688zM122.66393,190.13292h2.64063c2.59375,0 4.45833,-0.38021 5.59375,-1.14062c1.13541,-0.76041 1.84375,-1.89584 2.125,-3.40625c0.28125,-1.51041 0.42188,-3.40104 0.42188,-5.67187v-33.42187c0,-2.27084 -0.17187,-4.09896 -0.51562,-5.48437c-0.34375,-1.39584 -1.08334,-2.40625 -2.21875,-3.03125c-1.13541,-0.63541 -2.96875,-0.95312 -5.5,-0.95312h-2.54687z" fill="#0096ff"/><path d="M381.05842,201.9923v-76.67187h21.10938c5.17708,0 9.65625,0.56771 13.4375,1.70313c3.79167,1.13541 6.74479,3.17188 8.85938,6.10938c2.11458,2.9375 3.17188,7.08334 3.17188,12.4375c0,3.15625 -0.25521,5.96875 -0.76562,8.4375c-0.5,2.45834 -1.42708,4.58854 -2.78125,6.39063c-1.35417,1.79166 -3.29687,3.28646 -5.82812,4.48438l10.51563,37.10938l9.35938,32.29166c0,0 -14.59987,-10.52645 -18.205,-14.91012c-1.89856,-2.30857 -4.31939,-5.48496 -5.83245,-8.72017c-2.32894,-4.97971 -3.42001,-10.0988 -4.25394,-12.40716c-4.67162,-15.3537 -7.00547,-30.61358 -7.00547,-30.61358h-4.82812v34.35938zM397.26156,158.00792h4.73438c2.39583,0 4.25521,-0.42709 5.57813,-1.28125c1.32292,-0.85416 2.25,-2.08334 2.78125,-3.6875c0.54167,-1.61459 0.8125,-3.55729 0.8125,-5.82812c0,-3.28125 -0.59896,-5.83334 -1.79687,-7.65625c-1.19792,-1.83334 -3.40625,-2.75 -6.625,-2.75h-5.48437z" fill="#0096ff"/><path d="M229.8997,201.8673v-76.67187h25.75c4.60417,0 8.39063,0.86979 11.35938,2.60938c2.96875,1.72916 5.17708,4.25 6.625,7.5625c1.45833,3.3125 2.1875,7.33854 2.1875,12.07813c0,5.92709 -0.97917,10.45313 -2.9375,13.57813c-1.95833,3.125 -4.60937,5.28646 -7.95312,6.48438c-3.34375,1.19791 -7.09896,1.79688 -11.26562,1.79688h-6.8125v32.5625zM246.85283,157.47667h5.67188c2.08334,0 3.66146,-0.38021 4.73438,-1.14062c1.07292,-0.76041 1.78125,-1.89584 2.125,-3.40625c0.35417,-1.51041 0.53125,-3.4375 0.53125,-5.78125c0,-1.94791 -0.14583,-3.66146 -0.4375,-5.14062c-0.28125,-1.48959 -0.95833,-2.67709 -2.03125,-3.5625c-1.07292,-0.88541 -2.74479,-1.32812 -5.01563,-1.32812h-5.57812z" fill="#0096ff"/><path d="M283.9484,125.19542h25.74997c4.60417,0 8.39063,0.86979 11.35938,2.60938c2.96875,1.72916 5.17708,4.25 6.625,7.5625c1.45833,3.3125 2.1875,7.33854 2.1875,12.07813c0,5.92709 -0.97917,10.45313 -2.9375,13.57813c-1.95833,3.125 -4.60937,5.28646 -7.95312,6.48438c-3.34375,1.19791 -7.09896,1.79688 -11.26562,1.79688h-6.8125v32.5625h-16.9531zM300.9015,157.47667h5.67188c2.08333,0 3.66146,-0.38021 4.73438,-1.14062c1.07292,-0.76041 1.78125,-1.89584 2.125,-3.40625c0.35417,-1.51041 0.53125,-3.4375 0.53125,-5.78125c0,-1.94791 -0.14583,-3.66146 -0.4375,-5.14062c-0.28125,-1.48959 -0.95833,-2.67709 -2.03125,-3.5625c-1.07292,-0.88541 -2.74479,-1.32812 -5.01562,-1.32812h-5.57812z" fill="#0096ff"/><path d="M51.14723,202.0673l14.875,-41.26562c0,0 -5.09291,-22.1327 -15.20312,-42.80625c-1.82565,-3.73311 -3.95566,-6.71394 -3.95566,-6.71394c0,0 4.93812,2.23826 9.83913,6.11906c5.35077,4.23694 5.53408,3.80138 11.51653,11.59488c2.70455,3.52329 8.02187,17.13438 8.02187,17.13438l6.8125,-20.73437h14.10938l-13.45312,39.84375l14.96875,36.82813h-15.90625l-9.375,-22.90625l-8.23437,22.90625z" fill="#0096ff"/><path d="M337.99708,201.8673v-76.67187h34.46875v11.54688h-17.51562v19.03125h13.34375v11.73438h-13.34375v22.90625h17.70313v11.45313z" fill="#0096ff"/><path d="M157.50013,201.8673v-10.21875l18.73438,-55h-17.89062v-11.45312h34.54688v9.5625l-19.01562,55.65625h19.20313v11.45313z" fill="#0096ff"/><path d="M201.51754,201.8673v-76.67187h16.9375v76.67188z" fill="#0096ff"/><g><g fill="#004cad"><path d="M221.36702,243.66308c-2.02892,0 -3.64371,-0.3756 -4.84437,-1.12682c-1.20066,-0.75122 -2.06102,-1.83309 -2.58109,-3.24563c-0.51365,-1.41896 -0.77048,-3.09474 -0.77048,-5.02735v-10.69997c0,-1.93261 0.25682,-3.58593 0.77048,-4.95994c0.52007,-1.38044 1.38043,-2.43662 2.58109,-3.16858c1.20066,-0.73195 2.81545,-1.09793 4.84437,-1.09793c2.07386,0 3.70471,0.36598 4.89252,1.09793c1.18782,0.73195 2.04818,1.78814 2.58109,3.16858c0.53291,1.37401 0.79937,3.02733 0.79937,4.95994v10.73851c0,1.90693 -0.26646,3.56345 -0.79936,4.96957c-0.53291,1.3997 -1.39328,2.48157 -2.5811,3.24563c-1.18782,0.76406 -2.81866,1.14608 -4.89252,1.14608zM221.36702,239.8107c0.87321,0 1.51527,-0.18619 1.92619,-0.55859c0.41092,-0.37882 0.687,-0.89567 0.82826,-1.55058c0.14126,-0.66133 0.21188,-1.38365 0.21188,-2.16696v-13.17513c0,-0.80257 -0.07063,-1.5217 -0.21188,-2.15734c-0.14126,-0.63564 -0.41734,-1.13645 -0.82826,-1.50242c-0.41092,-0.36597 -1.05298,-0.54897 -1.92619,-0.54897c-0.82184,0 -1.44785,0.183 -1.87803,0.54897c-0.42376,0.36597 -0.70627,0.86679 -0.84753,1.50243c-0.14126,0.63564 -0.21188,1.35476 -0.21188,2.15733v13.17513c0,0.78331 0.06421,1.50564 0.19262,2.16697c0.13484,0.65491 0.41414,1.17177 0.8379,1.55059c0.42376,0.3724 1.0594,0.55859 1.90693,0.55859z"/><path d="M191.48759,243.27784v-28.62317h3.6405l6.96318,16.32446v-16.32445h4.30504v28.62318h-3.4575l-7.0017,-17.10456v17.10456z"/><path d="M279.34664,243.66308c-1.72073,0 -3.15895,-0.33387 -4.31466,-1.00162c-1.14929,-0.67416 -2.01928,-1.65653 -2.60998,-2.94707c-0.59069,-1.29697 -0.64741,-2.54685 -0.71804,-4.43451l4.21407,-0.74907c0.05136,1.11076 0.18619,1.61051 0.40449,2.45803c0.22472,0.84752 0.56823,1.50243 1.03051,1.96471c0.46229,0.45586 1.06904,0.6838 1.82026,0.6838c0.84753,0 1.44786,-0.25362 1.80099,-0.76085c0.35314,-0.50723 0.5297,-1.14928 0.5297,-1.92618c0,-1.2456 -0.28251,-2.2697 -0.84753,-3.07227c-0.56502,-0.80257 -1.31943,-1.60195 -2.26327,-2.3981l-3.60196,-3.18784c-1.01446,-0.86678 -1.82346,-1.8363 -2.427,-2.90855c-0.59712,-1.07225 -0.89567,-2.3981 -0.89567,-3.97758c0,-2.26006 0.65812,-4.00326 1.97435,-5.2296c1.32265,-1.22634 3.12684,-1.83951 5.41257,-1.83951c1.34191,0 2.4591,0.20547 3.35157,0.61639c0.89889,0.41092 1.61158,0.98235 2.13807,1.7143c0.53291,0.73195 0.92779,1.56342 1.18461,2.49442c0.26324,0.93099 0.43018,2.25578 0.50081,3.2895l-4.52761,0.91709c-0.04494,-0.89247 -0.07598,-2.17124 -0.23007,-2.87751c-0.15409,-0.71269 -0.42697,-1.26808 -0.81863,-1.66615c-0.38524,-0.39808 -0.95346,-0.59712 -1.70468,-0.59712c-0.7769,0 -1.37401,0.25362 -1.79136,0.76085c-0.41092,0.50081 -0.61638,1.13003 -0.61638,1.88766c0,0.9631 0.19905,1.75925 0.59712,2.38847c0.4045,0.6228 0.98557,1.26165 1.7432,1.91656l3.56345,3.14932c1.1814,0.98878 2.18943,2.15091 3.02411,3.4864c0.83468,1.32907 1.25203,2.93422 1.25203,4.81547c0,1.36759 -0.30177,2.5811 -0.90531,3.6405c-0.59712,1.0594 -1.4318,1.89088 -2.50404,2.49442c-1.07225,0.59712 -2.32748,0.89568 -3.7657,0.89568z"/><path d="M254.16975,243.27784v-28.62317h12.00979v3.67902h-6.78019v8.23447h5.33555v3.63087h-5.33555v9.47685h6.85723v3.60197z"/><path d="M238.98652,243.27784v-24.77079h-4.55543v-3.85238h14.27306v3.85238h-4.48802v24.77079z"/></g><g fill="#0096ff"><path d="M223.52435,243.66308c-2.02892,0 -3.6437,-0.3756 -4.84436,-1.12682c-1.20066,-0.75122 -2.06103,-1.83309 -2.5811,-3.24563c-0.51365,-1.41896 -0.77048,-3.09474 -0.77048,-5.02735v-10.69997c0,-1.93261 0.25682,-3.58593 0.77048,-4.95994c0.52007,-1.38044 1.38044,-2.43662 2.5811,-3.16858c1.20066,-0.73195 2.81545,-1.09793 4.84437,-1.09793c2.07386,0 3.7047,0.36598 4.89252,1.09793c1.18782,0.73195 2.04818,1.78814 2.58109,3.16858c0.53291,1.37401 0.79937,3.02733 0.79937,4.95994v10.73851c0,1.90693 -0.26646,3.56345 -0.79937,4.96957c-0.53291,1.3997 -1.39328,2.48157 -2.58109,3.24563c-1.18782,0.76406 -2.81866,1.14608 -4.89252,1.14608zM223.52435,239.8107c0.87321,0 1.51527,-0.18619 1.92619,-0.55859c0.41092,-0.37882 0.687,-0.89567 0.82826,-1.55058c0.14126,-0.66133 0.21188,-1.38365 0.21188,-2.16696v-13.17513c0,-0.80257 -0.07063,-1.5217 -0.21188,-2.15734c-0.14126,-0.63564 -0.41734,-1.13645 -0.82826,-1.50242c-0.41092,-0.36597 -1.05298,-0.54897 -1.92619,-0.54897c-0.82184,0 -1.44785,0.183 -1.87803,0.54897c-0.42376,0.36597 -0.70627,0.86679 -0.84753,1.50243c-0.14126,0.63564 -0.21188,1.35476 -0.21188,2.15733v13.17513c0,0.78331 0.06421,1.50564 0.19262,2.16697c0.13484,0.65491 0.41414,1.17177 0.8379,1.55059c0.42376,0.3724 1.05941,0.55859 1.90693,0.55859z"/><path d="M193.64492,243.27784v-28.62317h3.6405l6.96318,16.32446v-16.32445h4.30504v28.62318h-3.4575l-7.0017,-17.10456v17.10456z"/><path d="M281.50397,243.66308c-1.72073,0 -3.15894,-0.33387 -4.31465,-1.00162c-1.14929,-0.67416 -2.01929,-1.65653 -2.60998,-2.94707c-0.4764,-1.04602 -0.78366,-2.28413 -0.92178,-3.71436c-0.03313,-0.34314 -0.05654,-0.69734 -0.07021,-1.06259l4.48802,-0.88604c0.05136,1.11076 0.1862,2.08992 0.40449,2.93744c0.22472,0.84752 0.56823,1.50243 1.03052,1.96471c0.46229,0.45586 1.06903,0.6838 1.82025,0.6838c0.84753,0 1.44786,-0.25362 1.80099,-0.76085c0.35314,-0.50723 0.5297,-1.14928 0.5297,-1.92618c0,-1.2456 -0.28251,-2.2697 -0.84753,-3.07227c-0.56502,-0.80257 -1.31943,-1.60195 -2.26326,-2.3981l-3.60197,-3.18784c-1.01446,-0.86678 -1.82345,-1.8363 -2.42699,-2.90855c-0.59712,-1.07225 -0.89567,-2.3981 -0.89567,-3.97758c0,-2.26006 0.65811,-4.00326 1.97434,-5.2296c1.32265,-1.22634 3.12685,-1.83951 5.41258,-1.83951c1.34191,0 2.4591,0.20547 3.35157,0.61639c0.89889,0.41092 1.61157,0.98235 2.13807,1.7143c0.53291,0.73195 0.92778,1.56342 1.1846,2.49442c0.26324,0.93099 0.43018,1.91335 0.50081,2.94707l-4.45912,0.78011c-0.04494,-0.89247 -0.14446,-1.69184 -0.29856,-2.3981c-0.15409,-0.71269 -0.42697,-1.26808 -0.81862,-1.66615c-0.38524,-0.39808 -0.95346,-0.59712 -1.70468,-0.59712c-0.7769,0 -1.37401,0.25362 -1.79135,0.76085c-0.41092,0.50081 -0.61638,1.13003 -0.61638,1.88766c0,0.9631 0.19904,1.75925 0.59711,2.38847c0.4045,0.6228 0.98557,1.26165 1.7432,1.91656l3.56345,3.14932c1.1814,0.98878 2.18943,2.15091 3.02411,3.4864c0.83468,1.32907 1.08536,3.10089 1.08536,4.98214c0,1.36759 -0.1351,2.41443 -0.73864,3.47383c-0.59712,1.0594 -1.4318,1.89088 -2.50405,2.49442c-1.07225,0.59712 -2.32747,0.89568 -3.76569,0.89568z"/><path d="M256.32708,243.27784v-28.62317h12.00979v3.67902h-6.78018v8.23447h5.33555v3.63087h-5.33555v9.47685h6.85724v3.60197z"/><path d="M241.14385,243.27784v-24.77079h-4.55543v-3.85238h14.27306v3.85238h-4.48802v24.77079z"/></g></g></g></g></svg>